# xmcd
#
# Track frame offsets:
#	150
#	15472
#	30520
#
# Disc length: 648 seconds
#
# Revision: 4
# Processed by: cddbd v1.5.1PL0 Copyright (c) Steve Scherf et al.
# Submitted via: audiograbber 1.83.01
#
DISCID=14028603
DTITLE=Foreigner - Cold As Ice
DYEAR=1900
DGENRE=
TTITLE0=Cold As Ice
TTITLE1=Love On The Telephone
TTITLE2=Starrider
EXTD=
EXTT0=
EXTT1=
EXTT2=
PLAYORDER=
